<svg width="199" height="611" viewBox="0 0 199 611" fill="none" xmlns="http://www.w3.org/2000/svg">
<path d="M93.75 36L77.75 27.5H24V0H199V27.5H122.75L199 63.5V91L121 52.75L24 91V62.75L93.75 36Z" fill="#D7E5F5" fill-opacity="0.59"/>
<path d="M24 192.516V164.766L55.75 160.016V126.266L24 121.516V96.2656L199 124.266V164.516L24 192.516ZM79.5 129.766V156.266L168 143.016L79.5 129.766Z" fill="#D7E5F5" fill-opacity="0.59"/>
<path d="M199 245.822C199 259.656 195.333 269.906 188 276.572C180.667 283.406 169.917 286.822 155.75 286.822H133C118.833 286.822 108.083 283.406 100.75 276.572C93.4167 269.906 89.75 259.656 89.75 245.822V232.822H24V205.322H199V245.822ZM174 232.822H114.75V245.822C114.75 250.156 115.917 253.489 118.25 255.822C120.583 258.156 124.917 259.322 131.25 259.322H157.5C163.833 259.322 168.167 258.156 170.5 255.822C172.833 253.489 174 250.156 174 245.822V232.822Z" fill="#D7E5F5" fill-opacity="0.59"/>
<path d="M0.5 379.061H24V320.311H0.5V293.561H48.5V304.311C51.5 306.644 54.75 308.227 58.25 309.061C61.75 310.061 66.0833 310.727 71.25 311.061L199 317.311V394.311H48.5V406.311H0.5V379.061ZM71.75 338.061C65.0833 337.727 60.0833 336.894 56.75 335.561C53.4167 334.394 50.6667 332.644 48.5 330.311V366.311H174V343.061L71.75 338.061Z" fill="#D7E5F5" fill-opacity="0.59"/>
<path d="M24 510.631V482.881L55.75 478.131V444.381L24 439.631V414.381L199 442.381V482.631L24 510.631ZM79.5 447.881V474.381L168 461.131L79.5 447.881Z" fill="#D7E5F5" fill-opacity="0.59"/>
<path d="M24 550.938V523.438H199V550.938H124V582.188H199V610.188H24V582.188H99V550.938H24Z" fill="#D7E5F5" fill-opacity="0.59"/>
</svg>
